<svg xmlns="http://www.w3.org/2000/svg" width="187.209" height="160.842" viewBox="0 0 187.209 160.842"><defs><style>.a{fill:none;stroke:#c9c9c9;stroke-width:3px;}</style></defs><path class="a" d="M118.8,152.51a16.558,16.558,0,0,1-5.688-12.443,18.456,18.456,0,0,1,5.688-13.509q18.487-19.2,23.463-47.637Q126.619,77.5,116.309,67.189T106,40.527q0-17.775,11.021-29.151T144.393,0q17.775,0,28.8,13.865t11.021,41.594q0,56.169-36.261,94.563-7.109,7.821-16.353,7.821A18.248,18.248,0,0,1,118.8,152.51Zm-106,0A16.555,16.555,0,0,1,7.11,140.067,18.453,18.453,0,0,1,12.8,126.558q18.486-19.2,23.463-47.637Q20.619,77.5,10.31,67.189T0,40.527Q0,22.752,11.021,11.376T38.394,0q17.774,0,28.8,13.865T78.21,55.458q0,56.169-36.261,94.563-7.11,7.821-16.353,7.821A18.244,18.244,0,0,1,12.8,152.51Z" transform="translate(185.709 159.342) rotate(180)"></path></svg>