<svg xmlns="http://www.w3.org/2000/svg" width="181.319" height="161.064" viewBox="0 0 181.319 161.064"><defs><style>.a{fill:none;stroke:#c9c9c9;stroke-width:3px;}</style></defs><path class="a" d="M441.3,6089.828a16.579,16.579,0,0,1-5.7-12.46,18.476,18.476,0,0,1,5.7-13.527q18.51-19.225,23.5-47.7-15.665-1.423-25.989-11.748t-10.324-26.7q0-17.8,11.037-29.192t27.412-11.392q17.8,0,28.836,13.883T506.8,5992.64q0,56.248-36.312,94.7-7.12,7.831-16.375,7.832A18.272,18.272,0,0,1,441.3,6089.828Zm-100,0a16.579,16.579,0,0,1-5.7-12.46,18.476,18.476,0,0,1,5.7-13.527q18.512-19.225,23.5-47.7-15.665-1.423-25.988-11.748t-10.324-26.7q0-17.8,11.035-29.192t27.412-11.392q17.8,0,28.836,13.883T406.8,5992.64q0,56.248-36.313,94.7-7.12,7.831-16.375,7.832A18.272,18.272,0,0,1,341.3,6089.828Z" transform="translate(-326.985 -5935.604)"></path></svg>